<?xml version="1.0" encoding="UTF-8"?>
<svg id="Layer_1" xmlns="http://www.w3.org/2000/svg" version="1.1" viewBox="0 0 82.9 80.99">
  <!-- Generator: Adobe Illustrator 30.2.1, SVG Export Plug-In . SVG Version: 2.1.1 Build 1)  -->
  <defs>
    <style>
      .st0 {
        fill: #231f20;
      }

      .st1 {
        fill: #fbb040;
      }

      .st2 {
        fill: #fff;
      }
    </style>
  </defs>
  <rect class="st0" y="0" width="80.99" height="80.99" rx="16.03" ry="16.03"/>
  <g>
    <g id="arhn8r.tif">
      <g>
        <path class="st2" d="M48.32,68.13l-6.3-6.69c-2.26-2.41-4.57-4.72-7.3-6.51-1.92-1.26-3.85-1.15-6.1-.33l6.16-6.2c2.23-2.47,5.94-2.68,8.34-.28l12.55,12.58c2.28,2.29,1.54,5.69-.77,7.58-2,1.64-4.67,1.87-6.58-.15Z"/>
        <path class="st2" d="M52.08,26.54l-5.78,5.92c-2.25,2.3-5.45,2.81-8.1.73l-12.84-12.83c-1.52-1.52-1.8-3.73-.93-5.53,1.01-2.09,2.93-3.5,5.29-3.41,1.27.05,2.39.81,3.25,1.72l6.73,7.2c1.95,1.99,3.92,3.83,6.12,5.47,1.89,1.29,3.78,1.45,6.25.75Z"/>
        <circle class="st2" cx="30.05" cy="62.59" r="6.12"/>
        <circle class="st2" cx="50.94" cy="18.39" r="6.11"/>
      </g>
    </g>
    <g id="arhn8r.tif1" data-name="arhn8r.tif">
      <g>
        <path class="st1" d="M12.86,48.32l6.69-6.3c2.41-2.26,4.72-4.57,6.51-7.3,1.26-1.92,1.15-3.85.33-6.1l6.2,6.16c2.47,2.23,2.68,5.94.28,8.34l-12.58,12.55c-2.29,2.28-5.69,1.54-7.58-.77-1.64-2-1.87-4.67.15-6.58Z"/>
        <path class="st1" d="M54.45,52.08l-5.92-5.78c-2.3-2.25-2.81-5.45-.73-8.1l12.83-12.84c1.52-1.52,3.73-1.8,5.53-.93,2.09,1.01,3.5,2.93,3.41,5.29-.05,1.27-.81,2.39-1.72,3.25l-7.2,6.73c-1.99,1.95-3.83,3.92-5.47,6.12-1.29,1.89-1.45,3.78-.75,6.25Z"/>
        <circle class="st1" cx="18.4" cy="30.05" r="6.11"/>
        <circle class="st1" cx="62.6" cy="50.94" r="6.1"/>
      </g>
    </g>
  </g>
</svg>