<?xml version="1.0" encoding="UTF-8"?>
<svg id="Layer_1" xmlns="http://www.w3.org/2000/svg" version="1.1" viewBox="0 0 401.99 80.99">
  <!-- Generator: Adobe Illustrator 30.2.1, SVG Export Plug-In . SVG Version: 2.1.1 Build 1)  -->
  <defs>
    <style>
      .st0 {
        fill: #231f20;
      }

      .st1 {
        fill: #fbb040;
      }

      .st2 {
        fill: #fff;
      }
    </style>
  </defs>
  <g>
    <g>
      <path class="st0" d="M132.7,35.57c-2.18-1.47-4.96-2.13-7.9-2.13-6.92,0-12.26,5.29-12.26,11.66s5.34,11.88,12.26,11.88c2.94,0,5.72-.65,7.9-2.13v10.14c-2.56,1.25-5.45,1.74-8.56,1.74-12.97,0-22.24-9.65-22.24-21.58s9.27-21.47,22.24-21.47c3.11,0,6,.6,8.56,1.8v10.08Z"/>
      <path class="st0" d="M164.48,59.93h-15.37l-2.02,5.61h-11.01l15.64-40.66h10.41l15.64,40.66h-11.34l-1.96-5.61ZM161.59,51.7l-4.74-13.46-4.8,13.46h9.54Z"/>
      <path class="st0" d="M185.08,34.42h-6.92v-9.54h24.31v9.54h-6.81v31.12h-10.57v-31.12Z"/>
      <path class="st0" d="M250.15,45.16c0,11.99-9.92,21.69-22.57,21.69s-22.62-9.7-22.62-21.69,9.87-21.58,22.62-21.58,22.57,9.65,22.57,21.58ZM215.6,45.22c0,6.65,5.12,11.94,11.99,11.94s11.94-5.29,11.94-11.94-5.18-11.94-11.94-11.94-11.99,5.23-11.99,11.94Z"/>
      <path class="st0" d="M272.55,66.85c-11.01,0-17.22-6.87-17.22-19.19v-22.78h10.57v24.58c0,5.01,3.16,7.85,6.65,7.85s6.59-2.83,6.59-7.85v-24.58h10.57v22.78c0,12.32-6.16,19.19-17.17,19.19Z"/>
      <path class="st0" d="M307.59,52.57h-.6v12.97h-10.57V24.89h12.15c7.85,0,16.41,2.62,16.41,14.17,0,5.18-2.94,8.83-6.81,11.01l10.74,15.48h-12.64l-8.67-12.97ZM306.99,34.26v10.08h1.96c3.54,0,5.61-1.69,5.61-5.12s-2.51-4.96-5.67-4.96h-1.91Z"/>
      <path class="st0" d="M344,42.76v22.78h-10.57V24.89h10.08l16.73,22.89v-22.89h10.57v40.66h-10.08l-16.73-22.78Z"/>
      <path class="st0" d="M377.41,24.89h24.15v9.32h-13.57v6.54h12.1v8.45h-12.1v7.03h14.01v9.32h-24.58V24.89Z"/>
    </g>
    <g>
      <path class="st0" d="M377.21,79.33c0,.52-.16.92-.49,1.19-.33.27-.7.41-1.12.41s-.79-.14-1.12-.41c-.33-.27-.5-.67-.5-1.19s.17-.92.5-1.19c.33-.27.7-.41,1.12-.41s.79.14,1.12.41c.33.27.49.67.49,1.19Z"/>
      <path class="st0" d="M381.65,80.7h-3.07v-8.67h2.97v1.37c.38-.66,1.23-1.58,2.58-1.58,1.15,0,2.1.61,2.55,1.67.33-.64,1.16-1.67,2.72-1.67,1.72,0,2.93,1.21,2.93,3.21v5.67h-3.09v-4.74c0-1.01-.4-1.44-1.09-1.44-.61,0-1.18.37-1.18,1.44v4.74h-3.07v-4.74c0-1.01-.4-1.44-1.09-1.44-.73,0-1.16.54-1.16,1.28v4.89Z"/>
      <path class="st0" d="M399.16,79.85c-.52.62-1.35,1.15-2.57,1.15-1.84,0-2.95-1.16-2.95-2.72s1.11-2.71,3.09-2.71c.95,0,1.68.24,2.19.61v-.35c0-1.23-.68-1.58-1.87-1.58-.5,0-1.11.09-2.13.29l-.03-2.46c1.08-.21,1.79-.28,2.88-.28,2.76,0,4.23,1.28,4.23,3.3v5.6h-2.83v-.85ZM398.94,78.22c0-.56-.4-1.02-1.06-1.02s-1.11.47-1.11,1.02c0,.61.43,1.11,1.11,1.11s1.06-.47,1.06-1.11Z"/>
    </g>
  </g>
  <rect class="st2" y="0" width="80.99" height="80.99" rx="16.03" ry="16.03"/>
  <g>
    <g id="arhn8r.tif">
      <g>
        <path class="st0" d="M48.32,68.13l-6.3-6.69c-2.26-2.41-4.57-4.72-7.3-6.51-1.92-1.26-3.85-1.15-6.1-.33l6.16-6.2c2.23-2.47,5.94-2.68,8.34-.28l12.55,12.58c2.28,2.29,1.54,5.69-.77,7.58-2,1.64-4.67,1.87-6.58-.15Z"/>
        <path class="st0" d="M52.08,26.54l-5.78,5.92c-2.25,2.3-5.45,2.81-8.1.73l-12.84-12.83c-1.52-1.52-1.8-3.73-.93-5.53,1.01-2.09,2.93-3.5,5.29-3.41,1.27.05,2.39.81,3.25,1.72l6.73,7.2c1.95,1.99,3.92,3.83,6.12,5.47,1.89,1.29,3.78,1.45,6.25.75Z"/>
        <circle class="st0" cx="30.05" cy="62.59" r="6.12"/>
        <circle class="st0" cx="50.94" cy="18.39" r="6.11"/>
      </g>
    </g>
    <g id="arhn8r.tif1" data-name="arhn8r.tif">
      <g>
        <path class="st1" d="M12.86,48.32l6.69-6.3c2.41-2.26,4.72-4.57,6.51-7.3,1.26-1.92,1.15-3.85.33-6.1l6.2,6.16c2.47,2.23,2.68,5.94.28,8.34l-12.58,12.55c-2.29,2.28-5.69,1.54-7.58-.77-1.64-2-1.87-4.67.15-6.58Z"/>
        <path class="st1" d="M54.45,52.08l-5.92-5.78c-2.3-2.25-2.81-5.45-.73-8.1l12.83-12.84c1.52-1.52,3.73-1.8,5.53-.93,2.09,1.01,3.5,2.93,3.41,5.29-.05,1.27-.81,2.39-1.72,3.25l-7.2,6.73c-1.99,1.95-3.83,3.92-5.47,6.12-1.29,1.89-1.45,3.78-.75,6.25Z"/>
        <circle class="st1" cx="18.4" cy="30.05" r="6.11"/>
        <circle class="st1" cx="62.6" cy="50.94" r="6.1"/>
      </g>
    </g>
  </g>
</svg>